<svg data-v-423bf9ae="" xmlns="http://www.w3.org/2000/svg" viewBox="0 0 364 90" class="iconLeft"><!----><!----><!----><g data-v-423bf9ae="" id="b348a5b5-d405-40e6-b4e7-00974211f248" fill="#ffffff" transform="matrix(4.354136815319914,0,0,4.354136815319914,104.03483533927974,1.8505064239452693)"><path d="M10.45 13.52L10.45 4.29L9.61 4.29L5.92 8.24L2.20 4.29L1.37 4.29L1.37 13.52L3.27 13.52L3.27 7.78L5.65 10.38L6.21 10.38L8.54 7.78L8.54 13.52ZM19.84 6.62L17.86 6.62L15.94 11.02L13.97 6.62L11.95 6.62L14.93 13.02L12.85 16.80L14.82 16.80ZM25.44 4.36L25.44 13.33C26.55 13.55 27.84 13.70 29.09 13.70C32.05 13.70 33.84 11.59 33.84 8.89C33.84 5.93 31.43 4.36 28.77 4.36ZM27.34 6.14L28.70 6.14C30.47 6.14 31.90 7.12 31.90 8.96C31.90 10.66 30.93 11.91 29.04 11.91C28.52 11.91 27.89 11.87 27.34 11.76ZM38.25 6.44C36.48 6.44 35.04 7.81 35.04 10.12C35.04 12.41 36.48 13.73 38.13 13.73C39.16 13.73 39.94 13.10 40.35 12.36L40.35 13.52L42.08 13.52L42.08 6.62L40.35 6.62L40.35 7.40C39.83 6.82 39.01 6.44 38.25 6.44ZM38.61 8.13C39.28 8.13 39.85 8.48 40.35 9.00L40.35 9.98C40.36 11.22 39.48 11.99 38.57 11.99C37.53 11.99 36.85 11.16 36.85 10.12C36.85 9.08 37.53 8.13 38.61 8.13ZM45.66 5.37C46.32 5.37 46.87 4.83 46.87 4.20C46.87 3.55 46.32 3.02 45.66 3.02C45.01 3.02 44.47 3.55 44.47 4.20C44.47 4.83 45.01 5.37 45.66 5.37ZM46.63 6.62L43.79 6.62L43.79 8.09L44.90 8.09L44.90 13.52L46.63 13.52ZM50.48 13.52L50.48 3.68L48.74 3.68L48.74 13.52ZM59.55 6.62L57.57 6.62L55.66 11.02L53.69 6.62L51.67 6.62L54.65 13.02L52.57 16.80L54.54 16.80Z"></path></g><!----><g data-v-423bf9ae="" id="ae5b2b54-8443-402e-a92c-f73500a68e2b" transform="matrix(2.8125,0,0,2.8125,0,0)" stroke="none" fill="#FFFFFF"><path d="M9.382 8.675h13.943v13.943L32 31.293V0H.707zM22.618 23.325H8.675V9.382L0 .707V32h31.293z"></path></g><!----></svg>